HIERARCHY
ROOT root     
{
	OFFSET 0.0000 0.0000 0.0000
	CHANNELS 6 Xposition Yposition Zposition Zrotation Yrotation Xrotation
	JOINT pelvis   
	{
		OFFSET 0.0000 0.0000 0.0000
		CHANNELS 3 Zrotation Yrotation Xrotation
		JOINT thorax   
		{
			OFFSET 0.0000 23.0750 -5.0000
			CHANNELS 3 Zrotation Yrotation Xrotation
			JOINT rclavicle
			{
				OFFSET 0.0000 28.0009 0.0000
				CHANNELS 3 Zrotation Yrotation Xrotation
				JOINT rhumerus 
				{
					OFFSET -18.5725 5.5939 0.0000
					CHANNELS 3 Zrotation Yrotation Xrotation
					JOINT rradius  
					{
						OFFSET -24.8459 0.0000 0.0000
						CHANNELS 3 Zrotation Yrotation Xrotation
						JOINT rhand    
						{
							OFFSET -24.5477 0.0000 0.0000
							CHANNELS 3 Zrotation Yrotation Xrotation
							End Site
							{
								OFFSET -8.1826 0.0000 0.0000
							}
						}
					}
				}
			}
			JOINT lclavicle
			{
				OFFSET 0.0000 28.0009 0.0000
				CHANNELS 3 Zrotation Yrotation Xrotation
				JOINT lhumerus 
				{
					OFFSET 18.5725 5.5939 0.0000
					CHANNELS 3 Zrotation Yrotation Xrotation
					JOINT lradius  
					{
						OFFSET 24.8459 0.0000 0.0000
						CHANNELS 3 Zrotation Yrotation Xrotation
						JOINT lhand    
						{
							OFFSET 24.5477 0.0000 0.0000
							CHANNELS 3 Zrotation Yrotation Xrotation
							End Site
							{
								OFFSET 8.1826 0.0000 0.0000
							}
						}
					}
				}
			}
			JOINT head     
			{
				OFFSET 0.0000 35.2030 0.0000
				CHANNELS 3 Zrotation Yrotation Xrotation
				End Site
				{
					OFFSET 0.0000 11.7343 0.0000
				}
			}
		}
		JOINT rfemur   
		{
			OFFSET -8.2817 0.0000 0.0000
			CHANNELS 3 Zrotation Yrotation Xrotation
			JOINT rtibia   
			{
				OFFSET 0.0000 -43.3627 0.0000
				CHANNELS 3 Zrotation Yrotation Xrotation
				JOINT rfoot    
				{
					OFFSET 0.0000 -38.2947 0.0000
					CHANNELS 3 Zrotation Yrotation Xrotation
					JOINT rtoes    
					{
						OFFSET 0.0000 0.0000 16.6054
						CHANNELS 3 Zrotation Yrotation Xrotation
						End Site
						{
							OFFSET 0.0000 0.0000 5.5351
						}
					}
				}
			}
		}
		JOINT lfemur   
		{
			OFFSET 8.2817 0.0000 0.0000
			CHANNELS 3 Zrotation Yrotation Xrotation
			JOINT ltibia   
			{
				OFFSET 0.0000 -43.3627 0.0000
				CHANNELS 3 Zrotation Yrotation Xrotation
				JOINT lfoot    
				{
					OFFSET 0.0000 -38.2947 0.0000
					CHANNELS 3 Zrotation Yrotation Xrotation
					JOINT ltoes    
					{
						OFFSET 0.0000 0.0000 16.6054
						CHANNELS 3 Zrotation Yrotation Xrotation
						End Site
						{
							OFFSET 0.0000 0.0000 5.5351
						}
					}
				}
			}
		}
	}
}
MOTION
Frames: 15
Frame Time: .0333333
-21.46 83.684 -0.7889 119.886 86.7045 137.408 0 -0 0 3.10603 -6.40751 -10.2695 26.2026 -14.0596 4.49248e-05 53.9713 -13.8608 -1.44568 -1.18267e-06 73.1491 -8.77515e-07 0.794386 2.85162 0.0197996 -22.3443 18.0354 -3.56387e-05 -26.9913 -2.19241 6.55735 -180 -66.1925 180 3.28983 1.0061 0.0289003 -8.09739 11.0011 -5.55846 -0.939671 -8.68805 -41.4576 -0 -0 25.5072 -9.81131e-07 0.161396 13.9618 0.0389007 -4.42621e-07 -40.1442 -5.89856 -1.36767 2.40695 -0 -0 21.2241 -5.74036e-06 -5.71678 7.32721 -0.731518 -1.83782e-06 -63.195 
-20.469 83.361 -0.7177 117.537 87.1509 135.09 0 -0 0 3.72407 -5.88024 -10.345 26.3512 -13.8754 4.7975e-05 53.0858 -13.2925 -1.09563 -1.17999e-06 72.4115 -1.61195e-06 0.414096 2.75011 0.00989987 -22.6329 18.163 -6.32493e-05 -27.1705 -1.75718 5.37946 -180 -65.98 180 3.44303 0.869504 0.0261004 -9.26135 11.4162 -5.85683 -0.995358 -7.72847 -42.3834 -0 -0 28.8201 -3.45044e-07 -0.324797 12.1801 -0.0684992 6.23653e-07 -37.5398 -5.62019 -1.13304 2.47725 -0 -0 22.3466 -4.08022e-06 -5.73337 7.22584 -0.723501 -1.77709e-06 -64.8172 
-19.478 83.076 -0.6331 117.334 87.6013 134.836 0 -0 0 4.42568 -5.5163 -10.283 26.5322 -13.6505 9.39523e-05 52.1618 -12.5198 -0.651908 -0 71.54 -0 -0.0196007 2.64672 -0.000500029 -22.9729 18.2982 8.54534e-05 -27.4974 -1.25301 4.223 -180 -65.8494 180 3.71918 0.735797 0.0239005 -10.3829 11.8841 -6.26228 -0.924939 -6.89131 -42.9894 -0 -0 31.7037 -7.90495e-07 -0.787601 10.4885 -0.1434 -6.28397e-07 -35.898 -5.22377 -0.875999 2.50307 -0 -0 23.6687 3.39583e-06 -5.84348 7.25006 -0.739997 -6.65972e-06 -66.435 
-18.495 82.833 -0.5413 121 88.0241 138.402 0 -0 0 5.17717 -5.33317 -10.1275 26.7411 -13.3895 2.73211e-05 51.2441 -11.5711 -0.151427 -1.04661e-06 70.5525 -7.40369e-07 -0.495797 2.53633 -0.011 -23.3565 18.4365 -0.000120521 -27.9567 -0.703289 3.12175 -180 -65.8214 180 4.12839 0.6073 0.0218998 -11.4409 12.3813 -6.75217 -0.740312 -6.23456 -43.2905 -0 -0 34.0865 -1.81781e-06 -1.23401 8.92275 -0.191403 -1.96192e-06 -35.2484 -4.73873 -0.659709 2.44893 -0 -0 25.1831 -7.06348e-06 -6.01041 7.41874 -0.778906 6.92362e-06 -67.8786 
-17.52 82.639 -0.4379 132.345 88.362 149.588 0 -0 0 6.00839 -5.33297 -9.87806 26.9601 -13.1109 6.37213e-05 50.3428 -10.4528 0.418734 -6.92709e-07 69.4486 -9.99487e-07 -1.04449 2.40605 -0.0219001 -23.7949 18.5677 2.5023e-06 -28.5465 -0.139515 2.09351 -180 -65.9111 180 4.65663 0.485702 0.0196996 -12.4409 12.8872 -7.30909 -0.408741 -5.78983 -43.2679 -0 -0 35.9317 4.60169e-06 -1.67255 7.49301 -0.218199 -1.85295e-07 -35.4234 -4.12742 -0.476094 2.31662 -0 -0 26.8853 -1.19819e-06 -6.24177 7.76726 -0.846884 1.34072e-06 -69.2232 
-16.564 82.494 -0.3383 151.208 88.4528 168.281 0 -0 0 6.82184 -5.50056 -9.60837 27.1891 -12.8147 0.000156127 49.5241 -9.23679 0.987159 -0 68.2616 -0 -1.62635 2.25303 -0.0319991 -24.2512 18.6773 -6.81564e-05 -29.2499 0.411405 1.18546 -180 -66.1449 180 5.29377 0.3752 0.0172998 -13.3499 13.3638 -7.88231 -0.00141603 -5.60039 -43.002 -0 -0 37.2714 -3.62645e-07 -2.0907 6.2064 -0.226105 -2.20266e-06 -36.2752 -3.48465 -0.415902 2.0679 -0 -0 28.7335 -6.50992e-07 -6.44949 8.28043 -0.932698 6.03164e-06 -70.1307 
-15.629 82.397 -0.2452 170.117 88.1855 -172.985 0 -0 0 7.59962 -5.80566 -9.3386 27.4155 -12.5171 -5.35851e-05 48.8111 -7.96168 1.53952 -0 67.0219 -0 -2.24251 2.06948 -0.0404993 -24.71 18.7533 6.37376e-05 -30.0611 0.920198 0.422003 -180 -66.5445 180 6.00769 0.281104 0.0148005 -14.1647 13.7896 -8.43478 0.466044 -5.67126 -42.5237 -0 -0 38.1478 -1.04272e-06 -2.4818 5.06182 -0.219101 -4.98702e-07 -37.5108 -2.82433 -0.482799 1.70351 -0 -0 30.7011 -7.03434e-07 -6.60204 8.95144 -1.0317 -1.34118e-06 -70.5177 
-14.715 82.346 -0.1642 -178.257 87.6377 -161.522 0 -0 0 8.30734 -6.20467 -9.09722 27.6301 -12.2237 2.99576e-05 48.2307 -6.68032 2.04815 -5.64401e-07 65.7566 -8.73145e-07 -2.87817 1.85232 -0.0465021 -25.1511 18.7825 0.000157271 -30.9678 1.36494 -0.173112 -180 -67.1287 180 6.7615 0.211695 0.0124997 -14.8835 14.1393 -8.92507 0.9588 -5.99216 -41.881 -0 -0 38.6257 -8.07039e-07 -2.83386 4.05734 -0.200706 -1.18613e-06 -38.8441 -2.18111 -0.682006 1.22194 -0 -0 32.7495 6.28882e-06 -6.65404 9.75066 -1.1319 7.44456e-06 -70.2298 
-13.826 82.337 -0.0987 -172.786 86.8879 -156.198 0 -0 0 8.92217 -6.64546 -8.90438 27.8183 -11.9462 0.00014357 47.7963 -5.43717 2.49624 -5.29336e-07 64.5071 -8.38822e-07 -3.51852 1.60278 -0.0491997 -25.556 18.7595 -5.15052e-05 -31.9604 1.72986 -0.584985 -180 -67.9068 180 7.51515 0.178598 0.0116998 -15.5095 14.3987 -9.31935 1.44732 -6.52933 -41.1234 -0 -0 38.7795 1.12926e-07 -3.13891 3.19376 -0.175107 -2.85333e-06 -40.0297 -1.57926 -0.996501 0.62391 -0 -0 34.8493 2.69714e-06 -6.57098 10.6298 -1.21728 2.7777e-07 -69.1336 
-12.961 82.366 -0.0524 -170.725 86.0372 -154.25 0 -0 0 9.42257 -7.07249 -8.77381 27.9758 -11.6932 3.66506e-05 47.5119 -4.2673 2.87685 -0 63.3063 -0 -4.14867 1.32716 -0.0480981 -25.9095 18.6774 0.000119556 -33.0256 2.00959 -0.808303 -180 -68.8872 180 8.22942 0.195604 0.0141004 -16.0542 14.5565 -9.59301 1.90168 -7.23508 -40.2993 -0 -0 38.6877 1.94857e-06 -3.39148 2.47106 -0.146401 7.42966e-07 -40.9141 -1.04261 -1.39707 -0.0878008 -0 -0 36.9727 3.20885e-05 -6.32455 11.5293 -1.26908 -3.90986e-06 -67.132 
-12.124 82.429 -0.0243 -170.295 85.1261 -153.896 0 -0 0 9.81174 -7.43178 -8.71207 28.0899 -11.4564 -5.43687e-06 47.3748 -3.21263 3.17685 -6.68246e-07 62.1871 -1.10803e-06 -4.74662 1.0357 -0.0429002 -26.2066 18.5374 4.6078e-05 -34.1505 2.20906 -0.849282 -180 -70.0574 180 8.86856 0.277499 0.0215002 -16.5337 14.6163 -9.73416 2.30815 -8.03832 -39.4541 -0 -0 38.4253 1.31027e-06 -3.60178 1.89327 -0.119201 -5.36701e-07 -41.4524 -0.571196 -1.8337 -0.911298 -0 -0 39.1036 3.28814e-05 -5.9075 12.383 -1.27119 4.83553e-06 -64.1959 
-11.316 82.522 -0.0141 -170.6 84.2129 -154.228 0 -0 0 10.0888 -7.67795 -8.72012 28.1543 -11.2354 2.24362e-05 47.3727 -2.28986 3.40452 -7.62358e-07 61.1805 -4.50691e-07 -5.29717 0.742701 -0.0344005 -26.4442 18.3448 0.000100861 -35.3218 2.3424 -0.724199 -180 -71.4064 180 9.40409 0.437306 0.0359998 -16.9695 14.5834 -9.74532 2.65311 -8.86856 -38.6224 -0 -0 38.0568 7.19829e-07 -3.78284 1.45811 -0.096401 -2.83775e-07 -41.6817 -0.167903 -2.25625 -1.84352 -0 -0 41.2248 -9.59741e-06 -5.32057 13.1282 -1.21169 -2.86433e-06 -60.3926 
-10.538 82.643 -0.0214 -171.245 83.3279 -154.849 0 -0 0 10.2515 -7.77833 -8.7908 28.1681 -11.0332 2.05033e-05 47.4829 -1.49448 3.5851 -0 60.2977 -0 -5.7914 0.465801 -0.0236007 -26.6246 18.1132 9.71513e-05 -36.5212 2.42387 -0.455274 -180 -72.9023 180 9.81594 0.6849 0.0587985 -17.3779 14.476 -9.64265 2.92564 -9.66176 -37.8377 -0 -0 37.6436 1.74443e-06 -3.94845 1.15543 -0.0798005 4.31747e-07 -41.6887 0.1629 -2.61927 -2.87739 -0 -0 43.3194 -8.8696e-06 -4.57255 13.7191 -1.08658 -7.07695e-06 -55.9587 
-9.7915 82.787 -0.0431 -171.968 82.4986 -155.498 0 -0 0 10.3145 -7.71601 -8.91182 28.1308 -10.8382 -6.53122e-05 47.6842 -0.825179 3.73663 -0 59.5515 -0 -6.21687 0.2223 -0.0120999 -26.7595 17.8559 0.000105813 -37.7315 2.47478 -0.0723844 -180 -74.5191 180 10.0933 1.02399 0.0904009 -17.7833 14.3171 -9.45627 3.12925 -10.357 -37.1173 -0 -0 37.2207 1.02112e-07 -4.12119 0.974387 -0.0702009 4.80597e-07 -41.5911 0.432703 -2.88064 -4.00237 -0 -0 45.3703 1.07833e-05 -3.68915 14.1311 -0.901896 1.21032e-06 -51.2361 
-9.0743 82.953 -0.0771 -172.661 81.7574 -156.074 0 -0 0 10.2861 -7.49216 -9.06334 28.0451 -10.6432 3.61613e-05 47.9534 -0.263819 3.88871 -0 58.9428 -0 -6.5685 0.0283003 -0.00159999 -26.8605 17.5962 -2.31836e-05 -38.9281 2.5116 0.394768 180 -76.2179 180 10.2329 1.45013 0.129801 -18.2022 14.133 -9.22265 3.26663 -10.9172 -36.4604 -0 -0 36.8069 -4.13439e-07 -4.31702 0.898001 -0.0678008 7.5046e-08 -41.5013 0.646388 -3.01569 -5.20058 -0 -0 47.3585 9.83445e-06 -2.6992 14.368 -0.670296 3.53893e-06 -46.6585 
